<?xml version="1.0" encoding="iso-8859-1"?>
<!-- Generator: Adobe Illustrator 19.0.0, SVG Export Plug-In . SVG Version: 6.00 Build 0)  -->
<svg version="1.1" id="Layer_1" xmlns="http://www.w3.org/2000/svg" xmlns:xlink="http://www.w3.org/1999/xlink" x="0px" y="0px"
	 viewBox="0 0 511.996 511.996" style="enable-background:new 0 0 511.996 511.996;" xml:space="preserve">
<g>
	<g>
		<path d="M73.083,165.387c-3.182-2.652-7.91-2.225-10.565,0.956c-7.83,9.389-14.527,19.715-19.903,30.693
			c-1.823,3.723-0.327,8.306,3.437,10.037c3.703,1.703,8.733-0.778,10.036-3.438c4.85-9.902,10.89-19.216,17.952-27.683
			C76.692,172.77,76.265,168.041,73.083,165.387z"/>
	</g>
</g>
<g>
	<g>
		<path d="M470.605,117.376c22.823,0,41.391-18.567,41.391-41.391c0-22.823-18.568-41.39-41.391-41.39s-41.39,18.567-41.39,41.39
			c0,15.412,8.473,28.874,21,35.998l-12.535,35.222c-3.346-0.938-7.022-1.515-11.03-1.515c-4.413,0-9.925,0.728-15.903,3.193
			L397.551,111.8c12.352-7.169,20.682-20.533,20.682-35.815c0-22.823-18.568-41.39-41.391-41.39s-41.391,18.567-41.391,41.39
			s18.568,41.391,41.391,41.391c2.24,0,4.437-0.185,6.581-0.529l14.284,40.137c-1.708,1.461-3.419,3.094-5.118,4.935
			c-11.226,12.153-17.432,26.705-18.445,43.253c-0.813,13.284-3.496,24.478-8.111,33.859
			c-30.619-91.293-126.738-145.883-222.146-123.09c-19.369,4.629-37.323,12.818-53.363,24.342
			c-3.365,2.416-4.133,7.104-1.715,10.469c2.416,3.364,7.105,4.133,10.469,1.715c14.449-10.381,30.631-17.76,48.097-21.934
			c45.001-10.755,91.498-3.338,130.921,20.879c38.613,23.719,65.916,60.774,77.127,104.57c-2.944,5.12-11.145,18.02-25.201,30.229
			c-21.583,18.746-47.12,27.966-76.02,27.477c2.563-14.609,2.136-29.67-1.347-44.247c-11.386-47.649-59.414-77.15-107.061-65.765
			c-18.857,4.506-34.827,16.084-44.974,32.602c-10.147,16.519-13.253,36-8.748,54.855c7.632,31.943,39.829,51.721,71.774,44.089
			c4.029-0.963,6.516-5.011,5.553-9.039c-0.963-4.03-5.011-6.516-9.039-5.553c-23.898,5.71-47.985-9.086-53.695-32.983
			c-3.575-14.957-1.109-30.412,6.94-43.516c8.048-13.103,20.718-22.289,35.677-25.862c39.602-9.464,78.237,15.385,88.983,54.659
			c5.025,18.363,5.025,86.374-62.016,102.847c-57.918,14.231-116.476-22.057-130.335-80.062c-4.63-19.372-5.031-39.021-1.195-58.398
			c0.804-4.064-1.838-8.01-5.902-8.814c-4.063-0.81-8.01,1.838-8.814,5.902c-4.258,21.509-3.814,43.311,1.32,64.797
			c8.293,34.704,30.614,62.444,59.504,78.688c-43.883,18.117-75.193,29.557-75.537,29.683c-0.36,0.132-17.704,7.241-15.001,28.587
			c1.436,11.339,10.298,20.505,21.475,22.889c3.517,0.75,87.2,18.353,181.959,18.355c70.365,0,128.527-9.781,172.869-29.071
			c28.731-12.498,52.016-29.185,69.21-49.595c19.58-23.239,31.377-51.301,35.059-83.367c0.298-2.476,2.896-25.007,2.414-53.319
			c-0.703-41.28-7.567-73.604-20.402-96.073c-0.575-1.006-4.879-8.956-11.607-12.179l13.128-36.887
			C466.415,117.215,468.492,117.376,470.605,117.376z M376.844,102.374c-14.574,0-26.388-11.814-26.388-26.388
			c0-14.573,11.814-26.387,26.388-26.387c14.574,0,26.388,11.814,26.388,26.387S391.418,102.374,376.844,102.374z M468.268,262.303
			c0.466,27.312-2.023,48.898-2.313,51.31c-3.345,29.124-13.986,54.51-31.631,75.453c-15.692,18.626-37.132,33.936-63.723,45.504
			c-42.443,18.463-98.59,27.825-166.899,27.825c-93.18-0.002-175.363-17.289-178.815-18.024c-5.081-1.083-9.003-5.265-9.762-10.405
			c-0.733-4.973,1.63-9.941,5.908-12.526c5.077-1.867,41.085-15.201,88.369-35.037c13.192,4.773,27.274,7.35,41.706,7.348
			c9.444-0.001,19.046-1.098,28.625-3.387c32.111-7.674,58.557-31.095,70.266-61.798c42.872,1.832,72.784-15.878,90.555-31.462
			c20.05-17.585,42.922-44.85,48.568-91.016c1.582-12.936,5.672-24.444,14.491-33.992c8.707-9.427,17.336-11.524,23.039-11.406
			c15.834,0.327,22.928,12.27,23.189,12.726C461.408,193.669,467.608,223.574,468.268,262.303z M444.218,75.986
			c-0.464-14.565,11.814-26.387,26.387-26.387c14.573,0,26.388,11.814,26.388,26.387s-11.814,26.388-26.388,26.388
			C468.166,102.374,444.985,100.093,444.218,75.986z"/>
	</g>
</g>
<g>
	<g>
		<path d="M328.389,263.556c-3.492-24.092-14.072-45.671-31.449-64.138c-2.839-3.018-7.587-3.163-10.604-0.322
			c-3.016,2.838-3.161,7.586-0.322,10.604c15.224,16.181,24.486,35.025,27.526,56.01c0.542,3.736,3.748,6.426,7.414,6.426
			c0.358,0,0.721-0.025,1.086-0.079C326.141,271.461,328.983,267.657,328.389,263.556z"/>
	</g>
</g>
<g>
	<g>
		<path d="M274.127,179.817c-16.016-11.176-29.364-16.054-29.925-16.256c-3.894-1.405-8.195,0.613-9.602,4.511
			c-1.406,3.898,0.614,8.196,4.511,9.602c0.118,0.043,12.026,4.395,26.43,14.446c1.307,0.913,2.805,1.351,4.286,1.351
			c2.368,0,4.7-1.119,6.158-3.211C278.357,186.865,277.524,182.188,274.127,179.817z"/>
	</g>
</g>
<g>
	<g>
		<path d="M376.843,59.599c-9.034,0-16.386,7.351-16.386,16.387c0,9.034,7.351,16.386,16.386,16.386
			c9.035,0,16.387-7.35,16.387-16.386C393.229,66.95,385.878,59.599,376.843,59.599z"/>
	</g>
</g>
<g>
	<g>
		<path d="M470.605,59.599c-9.034,0-16.386,7.351-16.386,16.387c0,9.034,7.351,16.386,16.386,16.386
			c9.035,0,16.387-7.35,16.387-16.386C486.992,66.95,479.64,59.599,470.605,59.599z"/>
	</g>
</g>
<g>
</g>
<g>
</g>
<g>
</g>
<g>
</g>
<g>
</g>
<g>
</g>
<g>
</g>
<g>
</g>
<g>
</g>
<g>
</g>
<g>
</g>
<g>
</g>
<g>
</g>
<g>
</g>
<g>
</g>
</svg>
